<mxfile host="Electron" modified="2025-01-28T21:10:25.113Z" agent="Mozilla/5.0 (Windows NT 10.0; Win64; x64) AppleWebKit/537.36 (KHTML, like Gecko) draw.io/24.6.4 Chrome/124.0.6367.207 Electron/30.0.6 Safari/537.36" etag="vjyaw_J-2tuFRqyTzRAE" version="24.6.4" type="device">
  <diagram id="C5RBs43oDa-KdzZeNtuy" name="Page-1">
    <mxGraphModel dx="1706" dy="1685" grid="1" gridSize="10" guides="1" tooltips="1" connect="1" arrows="1" fold="1" page="1" pageScale="1" pageWidth="827" pageHeight="1169" math="0" shadow="0">
      <root>
        <mxCell id="WIyWlLk6GJQsqaUBKTNV-0" />
        <mxCell id="WIyWlLk6GJQsqaUBKTNV-1" parent="WIyWlLk6GJQsqaUBKTNV-0" />
        <mxCell id="bopSPSIJgxaglxvdl98t-0" value="Network" style="html=1;whiteSpace=wrap;" parent="WIyWlLk6GJQsqaUBKTNV-1" vertex="1">
          <mxGeometry x="-80" y="-160" width="120" height="40" as="geometry" />
        </mxCell>
        <mxCell id="_L6xkcDVSjes6TZ8V-Lo-0" value="Node" style="html=1;whiteSpace=wrap;" parent="WIyWlLk6GJQsqaUBKTNV-1" vertex="1">
          <mxGeometry x="-150" y="-250" width="110" height="50" as="geometry" />
        </mxCell>
        <mxCell id="_L6xkcDVSjes6TZ8V-Lo-1" value="Edge" style="html=1;whiteSpace=wrap;" parent="WIyWlLk6GJQsqaUBKTNV-1" vertex="1">
          <mxGeometry y="-250" width="110" height="50" as="geometry" />
        </mxCell>
        <mxCell id="_L6xkcDVSjes6TZ8V-Lo-2" value="NetworkManager" style="html=1;whiteSpace=wrap;" parent="WIyWlLk6GJQsqaUBKTNV-1" vertex="1">
          <mxGeometry x="-80" y="-80" width="120" height="40" as="geometry" />
        </mxCell>
        <mxCell id="_L6xkcDVSjes6TZ8V-Lo-3" value="SystemInterface" style="html=1;whiteSpace=wrap;" parent="WIyWlLk6GJQsqaUBKTNV-1" vertex="1">
          <mxGeometry x="-80" width="120" height="40" as="geometry" />
        </mxCell>
        <mxCell id="_L6xkcDVSjes6TZ8V-Lo-4" value="" style="endArrow=diamondThin;endFill=0;endSize=24;html=1;rounded=0;entryX=0.5;entryY=0;entryDx=0;entryDy=0;exitX=0.5;exitY=1;exitDx=0;exitDy=0;" parent="WIyWlLk6GJQsqaUBKTNV-1" source="bopSPSIJgxaglxvdl98t-0" target="_L6xkcDVSjes6TZ8V-Lo-2" edge="1">
          <mxGeometry width="160" relative="1" as="geometry">
            <mxPoint x="200" y="320" as="sourcePoint" />
            <mxPoint x="360" y="320" as="targetPoint" />
          </mxGeometry>
        </mxCell>
        <mxCell id="_L6xkcDVSjes6TZ8V-Lo-5" value="" style="endArrow=diamondThin;endFill=0;endSize=24;html=1;rounded=0;entryX=0.25;entryY=0;entryDx=0;entryDy=0;exitX=0.5;exitY=1;exitDx=0;exitDy=0;" parent="WIyWlLk6GJQsqaUBKTNV-1" source="_L6xkcDVSjes6TZ8V-Lo-0" target="bopSPSIJgxaglxvdl98t-0" edge="1">
          <mxGeometry width="160" relative="1" as="geometry">
            <mxPoint x="360" y="130" as="sourcePoint" />
            <mxPoint x="310" y="170" as="targetPoint" />
          </mxGeometry>
        </mxCell>
        <mxCell id="_L6xkcDVSjes6TZ8V-Lo-6" value="" style="endArrow=diamondThin;endFill=0;endSize=24;html=1;rounded=0;entryX=0.75;entryY=0;entryDx=0;entryDy=0;exitX=0.5;exitY=1;exitDx=0;exitDy=0;" parent="WIyWlLk6GJQsqaUBKTNV-1" source="_L6xkcDVSjes6TZ8V-Lo-1" target="bopSPSIJgxaglxvdl98t-0" edge="1">
          <mxGeometry width="160" relative="1" as="geometry">
            <mxPoint x="405" y="10" as="sourcePoint" />
            <mxPoint x="415" y="80" as="targetPoint" />
          </mxGeometry>
        </mxCell>
        <mxCell id="_L6xkcDVSjes6TZ8V-Lo-7" value="StateManager" style="html=1;whiteSpace=wrap;" parent="WIyWlLk6GJQsqaUBKTNV-1" vertex="1">
          <mxGeometry x="-230" y="-160" width="110" height="40" as="geometry" />
        </mxCell>
        <mxCell id="_L6xkcDVSjes6TZ8V-Lo-8" value="" style="endArrow=diamondThin;endFill=0;endSize=24;html=1;rounded=0;entryX=0;entryY=0;entryDx=0;entryDy=0;exitX=0.5;exitY=1;exitDx=0;exitDy=0;" parent="WIyWlLk6GJQsqaUBKTNV-1" source="_L6xkcDVSjes6TZ8V-Lo-7" target="_L6xkcDVSjes6TZ8V-Lo-2" edge="1">
          <mxGeometry width="160" relative="1" as="geometry">
            <mxPoint x="360" y="130" as="sourcePoint" />
            <mxPoint x="310" y="170" as="targetPoint" />
          </mxGeometry>
        </mxCell>
        <mxCell id="_L6xkcDVSjes6TZ8V-Lo-11" value="DegradationEngine" style="html=1;whiteSpace=wrap;" parent="WIyWlLk6GJQsqaUBKTNV-1" vertex="1">
          <mxGeometry x="80" y="-165" width="110" height="50" as="geometry" />
        </mxCell>
        <mxCell id="_L6xkcDVSjes6TZ8V-Lo-12" value="" style="endArrow=diamondThin;endFill=0;endSize=24;html=1;rounded=0;entryX=1;entryY=0;entryDx=0;entryDy=0;exitX=0.5;exitY=1;exitDx=0;exitDy=0;" parent="WIyWlLk6GJQsqaUBKTNV-1" source="_L6xkcDVSjes6TZ8V-Lo-11" target="_L6xkcDVSjes6TZ8V-Lo-2" edge="1">
          <mxGeometry width="160" relative="1" as="geometry">
            <mxPoint x="370" y="140" as="sourcePoint" />
            <mxPoint x="310" y="195" as="targetPoint" />
          </mxGeometry>
        </mxCell>
        <mxCell id="_L6xkcDVSjes6TZ8V-Lo-14" value="InputManager&lt;span style=&quot;color: rgba(0, 0, 0, 0); font-family: monospace; font-size: 0px; text-align: start; text-wrap: nowrap;&quot;&gt;%3CmxGraphModel%3E%3Croot%3E%3CmxCell%20id%3D%220%22%2F%3E%3CmxCell%20id%3D%221%22%20parent%3D%220%22%2F%3E%3CmxCell%20id%3D%222%22%20value%3D%22UserInterface%22%20style%3D%22html%3D1%3BwhiteSpace%3Dwrap%3B%22%20vertex%3D%221%22%20parent%3D%221%22%3E%3CmxGeometry%20x%3D%22-110%22%20y%3D%22160%22%20width%3D%22110%22%20height%3D%2250%22%20as%3D%22geometry%22%2F%3E%3C%2FmxCell%3E%3C%2Froot%3E%3C%2FmxGraphModel%3E&lt;/span&gt;" style="html=1;whiteSpace=wrap;" parent="WIyWlLk6GJQsqaUBKTNV-1" vertex="1">
          <mxGeometry x="-240" y="79" width="120" height="40" as="geometry" />
        </mxCell>
        <mxCell id="_L6xkcDVSjes6TZ8V-Lo-15" value="ExportManager" style="html=1;whiteSpace=wrap;" parent="WIyWlLk6GJQsqaUBKTNV-1" vertex="1">
          <mxGeometry x="80" y="79" width="120" height="40" as="geometry" />
        </mxCell>
        <mxCell id="_L6xkcDVSjes6TZ8V-Lo-24" value="" style="endArrow=diamondThin;endFill=0;endSize=24;html=1;rounded=0;exitX=0.5;exitY=0;exitDx=0;exitDy=0;entryX=0;entryY=1;entryDx=0;entryDy=0;" parent="WIyWlLk6GJQsqaUBKTNV-1" source="_L6xkcDVSjes6TZ8V-Lo-14" target="_L6xkcDVSjes6TZ8V-Lo-3" edge="1">
          <mxGeometry width="160" relative="1" as="geometry">
            <mxPoint x="330" y="150" as="sourcePoint" />
            <mxPoint x="-70" y="200" as="targetPoint" />
          </mxGeometry>
        </mxCell>
        <mxCell id="_L6xkcDVSjes6TZ8V-Lo-25" value="" style="endArrow=diamondThin;endFill=0;endSize=24;html=1;rounded=0;entryX=1;entryY=1;entryDx=0;entryDy=0;exitX=0.5;exitY=0;exitDx=0;exitDy=0;" parent="WIyWlLk6GJQsqaUBKTNV-1" source="_L6xkcDVSjes6TZ8V-Lo-15" target="_L6xkcDVSjes6TZ8V-Lo-3" edge="1">
          <mxGeometry width="160" relative="1" as="geometry">
            <mxPoint x="-150" y="145" as="sourcePoint" />
            <mxPoint x="-100" y="183" as="targetPoint" />
          </mxGeometry>
        </mxCell>
        <mxCell id="_L6xkcDVSjes6TZ8V-Lo-26" value="View" style="html=1;whiteSpace=wrap;" parent="WIyWlLk6GJQsqaUBKTNV-1" vertex="1">
          <mxGeometry x="-80" y="79" width="120" height="40" as="geometry" />
        </mxCell>
        <mxCell id="_L6xkcDVSjes6TZ8V-Lo-27" value="" style="endArrow=diamondThin;endFill=0;endSize=24;html=1;rounded=0;entryX=0.5;entryY=1;entryDx=0;entryDy=0;exitX=0.5;exitY=0;exitDx=0;exitDy=0;" parent="WIyWlLk6GJQsqaUBKTNV-1" source="_L6xkcDVSjes6TZ8V-Lo-26" target="_L6xkcDVSjes6TZ8V-Lo-3" edge="1">
          <mxGeometry width="160" relative="1" as="geometry">
            <mxPoint x="330" y="227" as="sourcePoint" />
            <mxPoint x="-110" y="250" as="targetPoint" />
          </mxGeometry>
        </mxCell>
        <mxCell id="_L6xkcDVSjes6TZ8V-Lo-20" value="LogManager" style="html=1;whiteSpace=wrap;" parent="WIyWlLk6GJQsqaUBKTNV-1" vertex="1">
          <mxGeometry x="-230" width="110" height="40" as="geometry" />
        </mxCell>
        <mxCell id="_L6xkcDVSjes6TZ8V-Lo-30" value="" style="endArrow=open;endSize=12;dashed=1;html=1;rounded=0;exitX=0;exitY=0.5;exitDx=0;exitDy=0;entryX=1;entryY=0.5;entryDx=0;entryDy=0;" parent="WIyWlLk6GJQsqaUBKTNV-1" source="_L6xkcDVSjes6TZ8V-Lo-3" target="_L6xkcDVSjes6TZ8V-Lo-20" edge="1">
          <mxGeometry width="160" relative="1" as="geometry">
            <mxPoint x="-40" y="-30" as="sourcePoint" />
            <mxPoint x="-38" y="11" as="targetPoint" />
          </mxGeometry>
        </mxCell>
        <mxCell id="QDXpNGiHhW8WrrlO1VBS-0" value="" style="endArrow=diamondThin;endFill=0;endSize=24;html=1;rounded=0;entryX=0.5;entryY=0;entryDx=0;entryDy=0;exitX=0.5;exitY=1;exitDx=0;exitDy=0;" edge="1" parent="WIyWlLk6GJQsqaUBKTNV-1" source="_L6xkcDVSjes6TZ8V-Lo-2" target="_L6xkcDVSjes6TZ8V-Lo-3">
          <mxGeometry width="160" relative="1" as="geometry">
            <mxPoint x="40" y="-30" as="sourcePoint" />
            <mxPoint x="50" y="130" as="targetPoint" />
          </mxGeometry>
        </mxCell>
      </root>
    </mxGraphModel>
  </diagram>
</mxfile>
